<svg width="20" height="21" viewBox="0 0 20 21" fill="none" xmlns="http://www.w3.org/2000/svg">
<path fill-rule="evenodd" clip-rule="evenodd" d="M10.0191 1.3315C8.02647 1.33399 6.11614 2.12645 4.70685 3.53515C3.29756 4.94384 2.50431 6.85384 2.50098 8.84646C2.50098 11.722 4.3183 14.3425 6.05058 16.289C7.78287 18.2354 9.51515 19.5331 9.51515 19.5331C9.65962 19.6414 9.83535 19.7 10.0159 19.7C10.1965 19.7 10.3723 19.6414 10.5167 19.5331C10.5167 19.5331 12.249 18.2354 13.9813 16.289C15.7136 14.3425 17.5309 11.722 17.5309 8.84646C17.5292 6.85388 16.7369 4.94339 15.328 3.53442C13.919 2.12545 12.0117 1.33316 10.0191 1.3315ZM10.0159 5.50787C10.9014 5.50787 11.7506 5.85962 12.3767 6.48572C13.0028 7.11183 13.3545 7.96101 13.3545 8.84646C13.3545 9.7319 13.0028 10.5811 12.3767 11.2072C11.7506 11.8333 10.9014 12.185 10.0159 12.185C9.13049 12.185 8.28131 11.8333 7.6552 11.2072C7.0291 10.5811 6.67735 9.7319 6.67735 8.84646C6.67735 7.96101 7.0291 7.11183 7.6552 6.48572C8.28131 5.85962 9.13049 5.50787 10.0159 5.50787Z" fill="url(#paint0_linear_3_30)"/>
<defs>
<linearGradient id="paint0_linear_3_30" x1="10.0159" y1="1.3315" x2="10.0159" y2="19.7" gradientUnits="userSpaceOnUse">
<stop stop-color="#FF000A"/>
<stop offset="1" stop-color="#8D0005"/>
</linearGradient>
</defs>
</svg>
