<svg width="26" height="26" viewBox="0 0 26 26" fill="none" xmlns="http://www.w3.org/2000/svg">
<path fill-rule="evenodd" clip-rule="evenodd" d="M25.5 12.5C25.5 18.8513 20.1274 24 13.5 24C6.87258 24 1.5 18.8513 1.5 12.5C1.5 6.14873 6.87258 1 13.5 1C20.1274 1 25.5 6.14873 25.5 12.5ZM24.5 12.5C24.5 18.299 19.5751 23 13.5 23C7.42487 23 2.5 18.299 2.5 12.5C2.5 6.70101 7.42487 2 13.5 2C19.5751 2 24.5 6.70101 24.5 12.5ZM13.5 22C19.0228 22 23.5 17.7467 23.5 12.5C23.5 7.25329 19.0228 3 13.5 3V12H19.5V13H13.5H12.5V3.04691C7.44668 3.52354 3.5 7.57392 3.5 12.5C3.5 17.7467 7.97715 22 13.5 22Z" fill="black"/>
</svg>
