<svg width="61" height="61" viewBox="0 0 61 61" fill="none" xmlns="http://www.w3.org/2000/svg">
<rect x="0.0297852" y="0.5" width="60" height="60" rx="25" fill="url(#paint0_linear_3_53)"/>
<path fill-rule="evenodd" clip-rule="evenodd" d="M15 19.2857C15 16.9188 16.9188 15 19.2857 15H40.7143C43.0812 15 45 16.9188 45 19.2857V40.7143C45 43.0812 43.0812 45 40.7143 45H19.2857C16.9188 45 15 43.0812 15 40.7143V19.2857ZM37.8571 30C37.8571 34.3394 34.3394 37.8571 30 37.8571C25.6606 37.8571 22.1429 34.3394 22.1429 30C22.1429 25.6606 25.6606 22.1429 30 22.1429C34.3394 22.1429 37.8571 25.6606 37.8571 30ZM37.8571 22.1429C38.6461 22.1429 39.2857 21.5033 39.2857 20.7143C39.2857 19.9253 38.6461 19.2857 37.8571 19.2857C37.0682 19.2857 36.4286 19.9253 36.4286 20.7143C36.4286 21.5033 37.0682 22.1429 37.8571 22.1429Z" fill="#D9D9D9"/>
<path d="M35 30C35 32.7614 32.7614 35 30 35C27.2386 35 25 32.7614 25 30C25 27.2386 27.2386 25 30 25C32.7614 25 35 27.2386 35 30Z" fill="#D9D9D9"/>
<defs>
<linearGradient id="paint0_linear_3_53" x1="30.0298" y1="0.5" x2="30.0298" y2="60.5" gradientUnits="userSpaceOnUse">
<stop stop-color="#FF000A"/>
<stop offset="1"/>
</linearGradient>
</defs>
</svg>
