<svg width="52" height="50" viewBox="0 0 52 50" fill="none" xmlns="http://www.w3.org/2000/svg">
<g filter="url(#filter0_d_3_17)">
<path fill-rule="evenodd" clip-rule="evenodd" d="M10.6065 7.83657C13.7037 3.42897 19.184 0.5 25.4282 0.5C31.1051 0.5 36.1506 2.92095 39.348 6.67298C40.1047 7.50194 40.7782 8.48962 41.3489 9.65754C42.0295 10.9892 42.5079 12.4211 42.7489 13.9216C43.9371 19.2712 43.0265 26.0916 40.4282 31.5C36.5616 38.1288 32.6948 44.624 26.1181 48.1465C25.8768 48.2907 25.6473 48.4086 25.4312 48.4986C25.4295 48.4995 25.4274 48.4996 25.4256 48.4988C25.1611 48.3886 24.8745 48.2403 24.5688 48.0564C18.6224 44.8276 15.2727 39.5825 11.3956 33.5115C11.0774 33.0131 10.7553 32.5088 10.4282 32C8.15036 27.6974 6.90357 22.547 7.00583 18.0012C6.99036 16.6225 7.14086 15.2935 7.48769 14.04C7.72422 13.0422 8.04898 12.1084 8.46677 11.2604C9.03574 9.91876 9.75976 8.78629 10.6065 7.83657ZM25.4281 28.5C32.3317 28.5 37.9281 23.1274 37.9281 16.5C37.9281 9.87259 32.3317 4.5 25.4281 4.5C18.5246 4.5 12.9281 9.87259 12.9281 16.5C12.9281 23.1274 18.5246 28.5 25.4281 28.5Z" fill="url(#paint0_linear_3_17)"/>
<path d="M25 20.5C25.2236 20.9472 23.5 23.8333 20 25C17.1076 25.9641 15.1447 26.9283 14.5595 25.2037C14.5188 25.0836 14.5706 24.9514 14.6797 24.8868C16.046 24.0778 16.6435 24.9385 20 23.5C23.5 22.5 24 18.5 25 20.5Z" fill="url(#paint1_linear_3_17)"/>
<path d="M26.0195 18.1264C25.7959 17.6792 27.5195 14.7931 31.0195 13.6264C33.8931 12.6686 39.0426 12.5122 39.9108 14.2584C39.9769 14.3912 39.9 14.5436 39.7559 14.5789C38.1019 14.9835 34.344 13.7017 31.0195 15.1264C27.5195 16.1264 27.0195 20.1264 26.0195 18.1264Z" fill="url(#paint2_linear_3_17)"/>
<path d="M24.2923 16.3728C24.3074 16.3813 24.3207 16.3907 24.3345 16.4012C24.3817 16.4372 24.4369 16.4702 24.5001 16.5C24.5205 16.5096 24.5409 16.5193 24.5614 16.5292C24.7152 16.622 24.853 16.7117 24.9732 16.7977C24.9896 16.8094 25.0114 16.8105 25.0288 16.8004C25.0442 16.7913 25.0633 16.7911 25.079 16.7998C25.5473 17.0605 26.0615 17.3829 26.6344 17.7421C28.7613 19.0756 31.6983 20.917 36.1093 22C42.2185 23.5 47.0001 19.5861 47.0001 16.5C47.0001 16.3893 47.1467 16.3292 47.2092 16.4206C47.6771 17.1051 47.9526 17.9516 47.9807 18.9988C48.1029 23.5504 44.5 27.5 39.5001 27C34.9944 26.5494 29.2703 24.0686 25.9874 22.6458C25.6744 22.5102 25.3836 22.3841 25.1182 22.2704C25.0474 22.2401 24.9937 22.1816 24.9494 22.1186C24.9066 22.0576 24.8509 22.0027 24.7818 21.9545C24.7135 21.9069 24.643 21.8577 24.5703 21.8068C22.815 20.5791 19.7572 18.4404 13.891 17C8.32418 15.6332 3.85966 18.7616 3.11079 21.6628C3.04205 21.9291 2.68512 22.0368 2.54738 21.7988C2.10617 21.0363 1.90605 20.1143 2.01952 18.9988C2.41013 15.1583 6.00026 12.5 9.00013 12C11.7704 11.5383 20.9364 14.4876 24.2923 16.3728Z" fill="url(#paint3_linear_3_17)"/>
<path d="M4.8026 19.0045C4.82067 18.997 4.82414 18.9956 4.81006 19C4.80613 19.001 4.80074 19.0037 4.79402 19.008C4.52042 19.1218 2.08476 20.1618 3.00006 22.45C3.46618 23.6153 5.13748 24.4857 6.95387 25.0525C7.18174 25.1236 7.39235 24.9063 7.33835 24.6737C7.32486 24.6156 7.31233 24.5576 7.30092 24.5C7.29881 24.4893 7.29672 24.4786 7.29463 24.4679C7.27224 24.3522 7.18152 24.2574 7.06805 24.2258C1.46232 22.6661 4.49066 19.2022 4.79402 19.008C4.79717 19.0067 4.80003 19.0055 4.8026 19.0045Z" fill="url(#paint4_linear_3_17)"/>
<path d="M8.00006 24.45C7.83172 24.4151 7.6828 24.5682 7.7277 24.7341C7.75132 24.8214 7.77569 24.9101 7.80084 25C7.81464 25.0493 7.8278 25.0971 7.84035 25.1433C7.86906 25.2489 7.95208 25.3316 8.05847 25.3574C10.3549 25.9144 12.5444 25.9915 12.5385 25.5715C12.5378 25.5244 12.5198 25.477 12.5189 25.4299C12.4975 24.3703 11.9953 24.4234 10.9843 24.5303C10.2567 24.6073 9.2654 24.7121 8.00006 24.45Z" fill="url(#paint5_linear_3_17)"/>
<path d="M47.5383 16.889C47.8926 18.4613 46.8782 19.316 46.0283 19.7445C45.7556 19.8819 45.5651 19.5643 45.7672 19.3355C45.9959 19.0766 46.2304 18.7825 46.3999 18.5C46.9483 17.5861 46.4973 15.9954 43.4654 15.1171C43.3531 15.0846 43.2671 14.9911 43.245 14.8764C43.2425 14.8639 43.2401 14.8514 43.2377 14.839C43.2365 14.8334 43.2354 14.8278 43.2343 14.8222C43.1877 14.5911 43.3974 14.3799 43.6228 14.449C45.5648 15.045 47.3156 15.9004 47.5383 16.889Z" fill="url(#paint6_linear_3_17)"/>
<path d="M42.7377 14.339C42.7115 14.2452 42.6376 14.1719 42.5432 14.1481C40.2424 13.5673 38.0154 13.3731 38.0012 13.7672C37.9995 13.8143 38.0186 13.862 38.0195 13.9091C38.0409 14.9687 38.5431 14.9156 39.5541 14.8087C40.2817 14.7317 41.273 14.6269 42.5383 14.889C42.7066 14.9238 42.8558 14.771 42.811 14.6052C42.7873 14.5178 42.7629 14.429 42.7377 14.339Z" fill="url(#paint7_linear_3_17)"/>
</g>
<defs>
<filter id="filter0_d_3_17" x="-2.01172" y="0.5" width="53.9956" height="55.9993" filterUnits="userSpaceOnUse" color-interpolation-filters="sRGB">
<feFlood flood-opacity="0" result="BackgroundImageFix"/>
<feColorMatrix in="SourceAlpha" type="matrix" values="0 0 0 0 0 0 0 0 0 0 0 0 0 0 0 0 0 0 127 0" result="hardAlpha"/>
<feOffset dy="4"/>
<feGaussianBlur stdDeviation="2"/>
<feComposite in2="hardAlpha" operator="out"/>
<feColorMatrix type="matrix" values="0 0 0 0 0 0 0 0 0 0 0 0 0 0 0 0 0 0 0.25 0"/>
<feBlend mode="normal" in2="BackgroundImageFix" result="effect1_dropShadow_3_17"/>
<feBlend mode="normal" in="SourceGraphic" in2="effect1_dropShadow_3_17" result="shape"/>
</filter>
<linearGradient id="paint0_linear_3_17" x1="24.986" y1="48.5" x2="24.986" y2="0.5" gradientUnits="userSpaceOnUse">
<stop/>
<stop offset="0.72" stop-color="#FF130B"/>
</linearGradient>
<linearGradient id="paint1_linear_3_17" x1="24.986" y1="48.5" x2="24.986" y2="0.5" gradientUnits="userSpaceOnUse">
<stop/>
<stop offset="0.72" stop-color="#FF130B"/>
</linearGradient>
<linearGradient id="paint2_linear_3_17" x1="24.986" y1="48.5" x2="24.986" y2="0.5" gradientUnits="userSpaceOnUse">
<stop/>
<stop offset="0.72" stop-color="#FF130B"/>
</linearGradient>
<linearGradient id="paint3_linear_3_17" x1="24.986" y1="48.5" x2="24.986" y2="0.5" gradientUnits="userSpaceOnUse">
<stop stop-color="white"/>
<stop offset="1" stop-color="#999999"/>
</linearGradient>
<linearGradient id="paint4_linear_3_17" x1="24.986" y1="48.5" x2="24.986" y2="0.5" gradientUnits="userSpaceOnUse">
<stop/>
<stop offset="0.72" stop-color="#FF130B"/>
</linearGradient>
<linearGradient id="paint5_linear_3_17" x1="24.986" y1="48.5" x2="24.986" y2="0.5" gradientUnits="userSpaceOnUse">
<stop/>
<stop offset="0.72" stop-color="#FF130B"/>
</linearGradient>
<linearGradient id="paint6_linear_3_17" x1="24.986" y1="48.5" x2="24.986" y2="0.5" gradientUnits="userSpaceOnUse">
<stop/>
<stop offset="0.72" stop-color="#FF130B"/>
</linearGradient>
<linearGradient id="paint7_linear_3_17" x1="24.986" y1="48.5" x2="24.986" y2="0.5" gradientUnits="userSpaceOnUse">
<stop/>
<stop offset="0.72" stop-color="#FF130B"/>
</linearGradient>
</defs>
</svg>
