<svg width="139" height="137" viewBox="0 0 139 137" fill="none" xmlns="http://www.w3.org/2000/svg">
<g filter="url(#filter0_d_3_92)">
<rect x="29" y="20" width="70" height="70" rx="10" fill="url(#paint0_linear_3_92)"/>
<g clip-path="url(#clip0_3_92)">
<path fill-rule="evenodd" clip-rule="evenodd" d="M44.6637 56.1794L51.6306 49.3535L52.5289 50.4264L46.5381 56.2597L45.7041 57.1131C45.4908 57.3313 45.3773 57.6298 45.391 57.9364C45.4032 58.2087 45.515 58.4667 45.7046 58.6605L45.992 58.9542L46.201 59.1906C46.3863 59.4002 46.6472 59.5255 46.9249 59.5384C47.2281 59.5525 47.5221 59.4311 47.729 59.2066L48.034 58.8756L54.4547 52.4554L55.4318 53.4553L49.0313 59.8553L48.7457 60.1652C48.2608 60.6915 47.5718 60.9758 46.8613 60.9429C46.2106 60.9127 45.5992 60.619 45.165 60.1279L44.9794 59.918L44.7167 59.6495C44.2849 59.2082 44.0303 58.6204 44.0025 58C43.9724 57.327 44.2114 56.6711 44.6637 56.1794Z" fill="white"/>
<path fill-rule="evenodd" clip-rule="evenodd" d="M65.8325 38.7711C64.656 37.581 63.1413 36.7925 61.5 36.5158C60.6312 36.3693 59.7443 36.3693 58.8754 36.5158L58.5476 36.5711C57.0716 36.8199 55.6772 37.4265 54.4834 38.3391L54.213 38.5458C53.3339 39.2179 52.6074 40.0729 52.0827 41.0531C51.4727 42.1929 51.1532 43.4685 51.1532 44.7646L51.1532 45.0404C51.1532 46.1362 51.3536 47.2226 51.7444 48.2447L51.9959 48.9025C52.5866 50.4476 53.651 51.7607 55.0331 52.6493C56.2623 53.4396 57.6886 53.8593 59.145 53.8593H60.2977C61.9014 53.8593 63.4691 53.3792 64.8034 52.4794C65.9796 51.6862 66.9307 50.5964 67.5629 49.3175L67.6194 49.2031C68.2158 47.9967 68.5273 46.6447 68.5273 45.2928C68.5273 43.68 68.0935 42.0751 67.2751 40.6953L67.1028 40.4048C66.7592 39.8256 66.3466 39.2911 65.8744 38.8135L65.8325 38.7711ZM61.7285 35.129C63.6555 35.4538 65.434 36.3796 66.8153 37.7769L66.8573 37.8193C67.4098 38.3783 67.8926 39.0037 68.2946 39.6815L68.4669 39.9719C69.4168 41.5734 69.9172 43.4289 69.9172 45.2928C69.9172 46.8598 69.5568 48.4275 68.8626 49.8319L68.8061 49.9462C68.0658 51.444 66.9518 52.7204 65.5744 53.6492C64.0118 54.703 62.1758 55.2653 60.2977 55.2653H59.145C57.4245 55.2653 55.7396 54.7695 54.2875 53.8359C52.6548 52.786 51.3973 51.2349 50.6995 49.4096L50.448 48.7518C49.9954 47.568 49.7632 46.3097 49.7632 45.0404L49.7632 44.7646C49.7632 43.2347 50.1404 41.729 50.8605 40.3837C51.4798 39.2267 52.3373 38.2174 53.375 37.4241L53.6454 37.2175C55.0182 36.168 56.6218 35.4704 58.3191 35.1842L58.6469 35.129C59.6671 34.957 60.7084 34.957 61.7285 35.129Z" fill="white"/>
<path fill-rule="evenodd" clip-rule="evenodd" d="M63.9706 48.0281C64.5532 47.2422 64.897 46.3017 64.9601 45.3215L65.002 44.6706C65.0184 44.4168 65.0102 44.1619 64.9778 43.9096C64.9087 43.3735 64.7309 42.8575 64.4553 42.3942L64.2266 42.0098C64.0288 41.6771 64.135 41.2452 64.4638 41.045C64.7927 40.8448 65.2197 40.9523 65.4176 41.2849L65.6463 41.6694C66.0206 42.2988 66.2623 42.9997 66.356 43.7281C66.4002 44.0708 66.4112 44.4171 66.389 44.762L66.3471 45.4128C66.2665 46.6655 65.8271 47.8673 65.0826 48.8716C64.3025 49.9237 63.2238 50.7102 61.9904 51.1261L61.5938 51.2598C61.2297 51.3826 60.8361 51.1836 60.7147 50.8152C60.5933 50.4469 60.7901 50.0488 61.1542 49.926L61.5509 49.7923C62.5161 49.4669 63.3602 48.8514 63.9706 48.0281Z" fill="white"/>
<path fill-rule="evenodd" clip-rule="evenodd" d="M67.6287 41.0325C67.6287 40.6442 67.9398 40.3295 68.3237 40.3295H75.0201C76.0571 40.3295 77.0856 40.5172 78.0572 40.8839C79.2238 41.3242 80.2833 42.0129 81.1638 42.9036L81.7934 43.5405C82.4753 44.2303 82.9891 45.0712 83.294 45.9966C83.5052 46.6373 83.6128 47.3083 83.6128 47.9836V49.187C83.6128 50.2207 83.3749 51.2402 82.9179 52.1648L82.7158 52.5737C82.3073 53.4 81.7699 54.1543 81.1241 54.8075L80.8297 55.1052C80.184 55.7585 79.4383 56.3021 78.6214 56.7153C77.4415 57.312 76.1405 57.6227 74.8214 57.6227H74.5783V62.5436C74.5783 62.5918 74.5735 62.6389 74.5644 62.6844C74.608 62.9023 74.5491 63.1375 74.3858 63.3104C74.1206 63.5911 73.6807 63.6012 73.4032 63.333L67.35 57.4821H65.1084C64.4143 57.4821 63.7232 57.3905 63.0525 57.2096C62.2092 56.9821 61.4086 56.6163 60.6824 56.1266L59.5986 55.3957C59.2793 55.1804 59.193 54.7439 59.4059 54.4209C59.6188 54.0978 60.0503 54.0105 60.3696 54.2259L61.4534 54.9567C62.0531 55.3611 62.7143 55.6633 63.4106 55.8511C63.9645 56.0005 64.5352 56.0762 65.1084 56.0762H67.573C67.7876 56.0762 67.9939 56.1599 68.1491 56.3098L73.1884 61.1807V56.2167H74.8214C75.9247 56.2167 77.0129 55.9569 77.9998 55.4578C78.6831 55.1122 79.3068 54.6575 79.8469 54.1111L80.1412 53.8134C80.6814 53.267 81.1309 52.6361 81.4726 51.9449L81.6747 51.5361C82.0352 50.8067 82.2229 50.0024 82.2229 49.187V47.9836C82.2229 47.4594 82.1393 46.9386 81.9754 46.4412C81.7387 45.7228 81.3399 45.0701 80.8106 44.5346L80.1809 43.8978C79.4413 43.1496 78.5513 42.571 77.5713 42.2011C76.7552 41.8932 75.8912 41.7354 75.0201 41.7354H68.3237C67.9398 41.7354 67.6287 41.4207 67.6287 41.0325ZM69.7136 46.3751C69.7136 45.9868 70.0247 45.6721 70.4085 45.6721H77.3582C77.742 45.6721 78.0531 45.9868 78.0531 46.3751C78.0531 46.7633 77.742 47.0781 77.3582 47.0781H70.4085C70.0247 47.0781 69.7136 46.7633 69.7136 46.3751ZM69.7136 50.5929C69.7136 50.2047 70.0247 49.89 70.4085 49.89H77.3582C77.742 49.89 78.0531 50.2047 78.0531 50.5929C78.0531 50.9812 77.742 51.2959 77.3582 51.2959H70.4085C70.0247 51.2959 69.7136 50.9812 69.7136 50.5929Z" fill="white"/>
<path fill-rule="evenodd" clip-rule="evenodd" d="M81.9121 52.0732C82.2554 51.8995 82.6728 52.0402 82.8445 52.3875L82.8602 52.4192C83.3415 53.3929 83.6762 54.434 83.8531 55.5078C84.1649 57.3999 83.9784 59.3417 83.3126 61.1377L83.1269 61.6387C82.4623 63.4313 81.3313 65.0089 79.8534 66.2049L79.6075 66.4039C78.8025 67.0553 77.89 67.5575 76.912 67.8872C76.3888 68.0636 75.8503 68.1895 75.3037 68.2633L73.9295 68.4486H70.4182L64.1876 74.7512C63.6623 75.2827 62.764 74.9063 62.764 74.1547L62.7641 68.1674H59.0462C57.7271 68.1674 56.4261 67.8567 55.2462 67.2599C54.4293 66.8468 53.6836 66.3031 53.0378 65.6499L52.8907 65.501C52.1474 64.7492 51.5288 63.8811 51.0588 62.9301L50.8643 62.5366C50.4766 61.7524 50.2126 60.9117 50.0817 60.045C50.0181 59.6238 49.9862 59.1984 49.9863 58.7723L49.9867 57.2489C49.9868 56.8606 50.298 56.546 50.6818 56.5461C51.0657 56.5462 51.3767 56.861 51.3766 57.2492L51.3762 58.7727C51.3761 59.1275 51.4027 59.4819 51.4557 59.8327C51.5647 60.5545 51.7846 61.2547 52.1075 61.9078L52.302 62.3013C52.7052 63.1171 53.2359 63.8619 53.8735 64.5069L54.0207 64.6557C54.5608 65.2021 55.1845 65.6568 55.8678 66.0024C56.8547 66.5015 57.9429 66.7614 59.0462 66.7614H64.154L64.1539 72.797L69.4549 67.4347C69.5683 67.2024 69.8049 67.0426 70.0784 67.0426H73.8373L75.12 66.8696C75.5797 66.8076 76.0325 66.7018 76.4725 66.5534C77.2949 66.2761 78.0623 65.8538 78.7392 65.3061L78.9851 65.107C80.2675 64.0693 81.2488 62.7004 81.8254 61.145L82.0112 60.6441C82.5913 59.0792 82.7537 57.3875 82.4821 55.739C82.3279 54.8034 82.0364 53.8964 81.617 53.0481L81.6013 53.0163C81.4297 52.6691 81.5688 52.2468 81.9121 52.0732ZM53.7295 57.6227C53.7295 57.2345 54.0406 56.9197 54.4244 56.9197H58.5942C58.978 56.9197 59.2892 57.2345 59.2892 57.6227C59.2892 58.011 58.978 58.3257 58.5942 58.3257H54.4244C54.0406 58.3257 53.7295 58.011 53.7295 57.6227ZM56.5093 61.8406C56.5093 61.4523 56.8205 61.1376 57.2043 61.1376H66.9337C67.3176 61.1376 67.6287 61.4523 67.6287 61.8406C67.6287 62.2288 67.3176 62.5436 66.9337 62.5436H57.2043C56.8205 62.5436 56.5093 62.2288 56.5093 61.8406Z" fill="white"/>
<path d="M81.1638 42.9036C80.2833 42.0129 79.2238 41.3242 78.0572 40.8839C77.0856 40.5172 76.0571 40.3295 75.0201 40.3295H68.3237C67.9398 40.3295 67.6287 40.6442 67.6287 41.0325C67.6287 41.4207 67.9398 41.7354 68.3237 41.7354H75.0201C75.8912 41.7354 76.7552 41.8932 77.5713 42.2011C78.5513 42.571 79.4413 43.1496 80.1809 43.8978L80.8106 44.5346C81.3399 45.0701 81.7387 45.7228 81.9754 46.4412C82.1393 46.9386 82.2229 47.4594 82.2229 47.9836V49.187C82.2229 50.0024 82.0352 50.8067 81.6747 51.5361L81.4726 51.9449M81.1638 42.9036L80.6723 43.4007M81.1638 42.9036L81.7934 43.5405C82.4753 44.2303 82.9891 45.0712 83.294 45.9966C83.5052 46.6373 83.6128 47.3083 83.6128 47.9836V49.187C83.6128 50.2207 83.3749 51.2402 82.9179 52.1648M82.9179 52.1648L82.2963 51.8504M82.9179 52.1648L82.7158 52.5737C82.3073 53.4 81.7699 54.1543 81.1241 54.8075L80.8297 55.1052C80.184 55.7585 79.4383 56.3021 78.6214 56.7153C77.4415 57.312 76.1405 57.6227 74.8214 57.6227H74.5783V62.5436C74.5783 62.5918 74.5735 62.6389 74.5644 62.6844C74.608 62.9023 74.5491 63.1375 74.3858 63.3104C74.1206 63.5911 73.6807 63.6012 73.4032 63.333L67.35 57.4821H65.1084C64.4143 57.4821 63.7232 57.3905 63.0525 57.2096C62.2092 56.9821 61.4086 56.6163 60.6824 56.1266L59.5986 55.3957C59.2793 55.1804 59.193 54.7439 59.4059 54.4209C59.6188 54.0978 60.0503 54.0105 60.3696 54.2259L61.4534 54.9567C62.0531 55.3611 62.7143 55.6633 63.4106 55.8511C63.9645 56.0005 64.5352 56.0762 65.1084 56.0762H67.573C67.7876 56.0762 67.9939 56.1599 68.1491 56.3098L73.1884 61.1807V56.2167H74.8214C75.9247 56.2167 77.0129 55.9569 77.9998 55.4578C78.6831 55.1122 79.3068 54.6575 79.8469 54.1111L80.1412 53.8134C80.6814 53.267 81.1309 52.6361 81.4726 51.9449M81.4726 51.9449L82.0942 52.2593M53.0378 65.6499C53.6836 66.3031 54.4293 66.8468 55.2462 67.2599C56.4261 67.8567 57.7271 68.1673 59.0462 68.1673H62.7641L62.764 74.1547C62.764 74.9063 63.6623 75.2827 64.1876 74.7512L70.4182 68.4486H73.9295L75.3037 68.2633C75.8503 68.1895 76.3888 68.0636 76.912 67.8872C77.89 67.5575 78.8025 67.0553 79.6075 66.4039L79.8534 66.2049C81.3313 65.0089 82.4623 63.4313 83.1269 61.6387L83.3126 61.1377C83.9784 59.3417 84.1649 57.3999 83.8531 55.5078C83.6762 54.434 83.3415 53.3929 82.8602 52.4192L82.8445 52.3875C82.6728 52.0402 82.2554 51.8995 81.9121 52.0732C81.5688 52.2468 81.4297 52.6691 81.6013 53.0163L81.617 53.0481M53.0378 65.6499L53.5293 65.1528M53.0378 65.6499L52.8907 65.501C52.1474 64.7492 51.5288 63.8811 51.0588 62.9301L50.8643 62.5366C50.4766 61.7524 50.2126 60.9117 50.0817 60.045C50.0181 59.6238 49.9862 59.1984 49.9863 58.7723L49.9867 57.2489C49.9868 56.8606 50.298 56.546 50.6818 56.5461C51.0657 56.5462 51.3767 56.861 51.3766 57.2492L51.3762 58.7727C51.3761 59.1275 51.4027 59.4819 51.4557 59.8327C51.5647 60.5545 51.7846 61.2547 52.1075 61.9078L52.302 62.3013C52.7052 63.1171 53.2359 63.8619 53.8735 64.5069L54.0207 64.6557C54.5608 65.2021 55.1845 65.6568 55.8678 66.0024C56.8547 66.5015 57.9429 66.7614 59.0462 66.7614H64.154L64.1539 72.797L69.4549 67.4347C69.5683 67.2024 69.8049 67.0426 70.0784 67.0426H73.8373L75.12 66.8696C75.5797 66.8076 76.0325 66.7018 76.4725 66.5534C77.2949 66.2761 78.0623 65.8538 78.7392 65.3061L78.9851 65.107C80.2675 64.0693 81.2488 62.7004 81.8254 61.145L82.0112 60.6441C82.5913 59.0792 82.7537 57.3875 82.4821 55.739C82.3279 54.8034 82.0364 53.8964 81.617 53.0481M81.617 53.0481V53.0481ZM51.6306 49.3535L44.6637 56.1794C44.2114 56.6711 43.9724 57.327 44.0025 58C44.0303 58.6204 44.2849 59.2082 44.7167 59.6495L44.9794 59.918L45.165 60.1279C45.5992 60.619 46.2106 60.9127 46.8613 60.9429C47.5718 60.9758 48.2608 60.6915 48.7457 60.1652L49.0313 59.8553L55.4318 53.4553L54.4547 52.4554L48.034 58.8756L47.729 59.2066C47.5221 59.4311 47.2281 59.5525 46.9249 59.5384C46.6472 59.5255 46.3863 59.4002 46.201 59.1906L45.992 58.9542L45.7046 58.6605C45.515 58.4667 45.4032 58.2087 45.391 57.9364C45.3773 57.6298 45.4908 57.3313 45.7041 57.1131L46.5381 56.2597L52.5289 50.4264L51.6306 49.3535ZM61.5 36.5158C63.1413 36.7925 64.656 37.581 65.8325 38.7711L65.8744 38.8135C66.3466 39.2911 66.7592 39.8256 67.1028 40.4048L67.2751 40.6953C68.0935 42.0751 68.5273 43.68 68.5273 45.2928C68.5273 46.6447 68.2158 47.9967 67.6194 49.2031L67.5629 49.3175C66.9307 50.5964 65.9796 51.6862 64.8034 52.4794C63.4691 53.3792 61.9014 53.8593 60.2977 53.8593L59.145 53.8593C57.6886 53.8593 56.2623 53.4396 55.0331 52.6493C53.651 51.7606 52.5866 50.4476 51.9959 48.9025L51.7444 48.2447C51.3536 47.2226 51.1532 46.1362 51.1532 45.0404L51.1532 44.7646C51.1532 43.4685 51.4727 42.1929 52.0827 41.0531C52.6074 40.0729 53.3339 39.2179 54.213 38.5458L54.4834 38.3391C55.6772 37.4265 57.0716 36.8199 58.5476 36.5711L58.8754 36.5158C59.7443 36.3693 60.6312 36.3693 61.5 36.5158ZM66.8153 37.7769C65.434 36.3796 63.6555 35.4538 61.7285 35.129C60.7084 34.957 59.6671 34.957 58.6469 35.129L58.3191 35.1842C56.6218 35.4704 55.0182 36.168 53.6454 37.2175L53.375 37.4241C52.3373 38.2174 51.4798 39.2267 50.8605 40.3837C50.1404 41.729 49.7632 43.2347 49.7632 44.7646L49.7632 45.0404C49.7632 46.3097 49.9954 47.568 50.448 48.7518L50.6995 49.4096C51.3973 51.2349 52.6548 52.786 54.2875 53.8359C55.7396 54.7695 57.4245 55.2653 59.145 55.2653L60.2977 55.2653C62.1758 55.2653 64.0118 54.703 65.5744 53.6492C66.9518 52.7204 68.0658 51.444 68.8061 49.9462L68.8626 49.8319C69.5568 48.4275 69.9172 46.8598 69.9172 45.2928C69.9172 43.4289 69.4168 41.5734 68.4669 39.9719L68.2946 39.6815C67.8926 39.0037 67.4098 38.3783 66.8573 37.8193L66.8153 37.7769ZM64.9601 45.3215C64.897 46.3017 64.5532 47.2422 63.9706 48.0281C63.3602 48.8514 62.5161 49.4669 61.5509 49.7923L61.1542 49.926C60.7901 50.0488 60.5933 50.4469 60.7147 50.8152C60.8361 51.1836 61.2297 51.3826 61.5938 51.2598L61.9904 51.1261C63.2238 50.7102 64.3025 49.9237 65.0826 48.8716C65.8271 47.8673 66.2665 46.6655 66.3471 45.4128L66.389 44.762C66.4112 44.4171 66.4002 44.0708 66.356 43.7281C66.2623 42.9997 66.0206 42.2988 65.6463 41.6694L65.4176 41.2849C65.2197 40.9523 64.7927 40.8448 64.4638 41.045C64.135 41.2452 64.0288 41.6771 64.2266 42.0098L64.4553 42.3942C64.7309 42.8575 64.9087 43.3735 64.9778 43.9096C65.0102 44.1619 65.0184 44.4168 65.002 44.6706L64.9601 45.3215ZM70.4085 45.6721C70.0247 45.6721 69.7136 45.9868 69.7136 46.3751C69.7136 46.7633 70.0247 47.0781 70.4085 47.0781H77.3582C77.742 47.0781 78.0531 46.7633 78.0531 46.3751C78.0531 45.9868 77.742 45.6721 77.3582 45.6721H70.4085ZM70.4085 49.89C70.0247 49.89 69.7136 50.2047 69.7136 50.5929C69.7136 50.9812 70.0247 51.2959 70.4085 51.2959H77.3582C77.742 51.2959 78.0531 50.9812 78.0531 50.5929C78.0531 50.2047 77.742 49.89 77.3582 49.89H70.4085ZM54.4244 56.9197C54.0406 56.9197 53.7295 57.2345 53.7295 57.6227C53.7295 58.011 54.0406 58.3257 54.4244 58.3257H58.5942C58.978 58.3257 59.2892 58.011 59.2892 57.6227C59.2892 57.2345 58.978 56.9197 58.5942 56.9197H54.4244ZM57.2043 61.1376C56.8205 61.1376 56.5093 61.4523 56.5093 61.8406C56.5093 62.2288 56.8205 62.5436 57.2043 62.5436H66.9337C67.3176 62.5436 67.6287 62.2288 67.6287 61.8406C67.6287 61.4523 67.3176 61.1376 66.9337 61.1376H57.2043Z" stroke="white" stroke-linecap="round"/>
</g>
</g>
<defs>
<filter id="filter0_d_3_92" x="-11" y="0" width="150" height="150" filterUnits="userSpaceOnUse" color-interpolation-filters="sRGB">
<feFlood flood-opacity="0" result="BackgroundImageFix"/>
<feColorMatrix in="SourceAlpha" type="matrix" values="0 0 0 0 0 0 0 0 0 0 0 0 0 0 0 0 0 0 127 0" result="hardAlpha"/>
<feOffset dy="20"/>
<feGaussianBlur stdDeviation="20"/>
<feComposite in2="hardAlpha" operator="out"/>
<feColorMatrix type="matrix" values="0 0 0 0 0.37 0 0 0 0 0.37 0 0 0 0 0.37 0 0 0 0.3 0"/>
<feBlend mode="normal" in2="BackgroundImageFix" result="effect1_dropShadow_3_92"/>
<feBlend mode="normal" in="SourceGraphic" in2="effect1_dropShadow_3_92" result="shape"/>
</filter>
<linearGradient id="paint0_linear_3_92" x1="64" y1="20" x2="64" y2="90" gradientUnits="userSpaceOnUse">
<stop stop-color="#ED1C24"/>
<stop offset="1" stop-color="#871015"/>
</linearGradient>
<clipPath id="clip0_3_92">
<rect width="40" height="40" fill="white" transform="translate(44 35)"/>
</clipPath>
</defs>
</svg>
