<svg width="139" height="137" viewBox="0 0 139 137" fill="none" xmlns="http://www.w3.org/2000/svg">
<g filter="url(#filter0_d_3_86)">
<rect x="29" y="20" width="70" height="70" rx="10" fill="url(#paint0_linear_3_86)"/>
<path fill-rule="evenodd" clip-rule="evenodd" d="M75 70.1951V38.8049C75 36.7035 73.6867 35 72.0667 35H55.9333C54.3133 35 53 36.7035 53 38.8049V70.1951C53 72.2965 54.3133 74 55.9333 74H72.0667C73.6867 74 75 72.2965 75 70.1951ZM74.2667 38.8049H53.7333V70.1951H74.2667V38.8049ZM61 72.25C61 72.3881 61.1119 72.5 61.25 72.5H66.25C66.3881 72.5 66.5 72.3881 66.5 72.25C66.5 72.1119 66.3881 72 66.25 72H61.25C61.1119 72 61 72.1119 61 72.25ZM56.5 38C56.7761 38 57 37.7761 57 37.5C57 37.2239 56.7761 37 56.5 37C56.2239 37 56 37.2239 56 37.5C56 37.7761 56.2239 38 56.5 38Z" fill="#D9D9D9"/>
<path fill-rule="evenodd" clip-rule="evenodd" d="M56.8125 52.8889C56.5971 53.9657 56.6665 55.0802 57.0138 56.122L57.2038 56.6919C57.4341 57.3829 57.7743 58.0321 58.2112 58.6148L58.2806 58.7072C58.8661 59.488 59.6254 60.1217 60.4983 60.5581C61.0588 60.8384 61.6581 61.0332 62.2762 61.1363L63.2085 61.2916C64.0679 61.4349 64.9462 61.4207 65.8005 61.2498L66.1508 61.1798C66.8404 61.0419 67.4963 60.7702 68.0814 60.3801C68.5893 60.0415 69.0359 59.619 69.4021 59.1307L69.6805 58.7596C70.1894 58.081 70.5856 57.3249 70.8538 56.5203C71.2881 55.2174 71.3748 53.8238 71.1055 52.4772L70.9843 51.8714L70.9217 51.6835C70.6031 50.7276 70.0662 49.859 69.3537 49.1465L68.9556 48.7484C68.1705 47.9633 67.1868 47.4063 66.1096 47.137C65.7559 47.0486 65.3951 46.9919 65.0313 46.9677L64.0002 46.8989L63.1634 46.9547C62.6585 46.9884 62.1599 47.0864 61.6798 47.2464C61.0739 47.4484 60.5046 47.7467 59.9937 48.1298L59.794 48.2796C59.0199 48.8602 58.3658 49.5855 57.8679 50.4152L57.5892 50.8797C57.2171 51.5 56.9543 52.1796 56.8125 52.8889ZM57.9625 55.8058C57.6702 54.929 57.6118 53.9912 57.7931 53.085C57.9124 52.4881 58.1335 51.9162 58.4467 51.3942L58.7254 50.9297C59.1567 50.2109 59.7234 49.5826 60.394 49.0796L60.5937 48.9298C61.0186 48.6112 61.4921 48.3631 61.996 48.1951C62.3953 48.062 62.81 47.9805 63.23 47.9525L64.0002 47.9011L64.9648 47.9654C65.2692 47.9857 65.5711 48.0331 65.8671 48.1071C66.7684 48.3325 67.5916 48.7985 68.2485 49.4555L68.6466 49.8536C69.2493 50.4563 69.7035 51.1911 69.973 51.9998L70.016 52.1286L70.1249 52.6733C70.3601 53.8493 70.2844 55.0663 69.9051 56.204C69.6854 56.8632 69.3673 57.4851 68.9619 58.0487L68.4813 56.9674C68.3017 56.5633 68.0492 56.1957 67.7365 55.883C67.341 55.4874 66.8588 55.1894 66.3281 55.0125L66.1901 54.9665C65.8154 54.8416 65.4253 54.77 65.0312 54.7536C65.1539 54.6765 65.2677 54.5858 65.3705 54.4831L65.4268 54.4268C65.6114 54.2422 65.765 54.0291 65.8817 53.7956L66 53.559C66.1644 53.2302 66.25 52.8676 66.25 52.5C66.25 52.1324 66.1644 51.7698 66 51.441L65.8817 51.2044C65.765 50.9709 65.6114 50.7578 65.4268 50.5732L65.3705 50.5169C65.2232 50.3696 65.0531 50.247 64.8668 50.1539C64.3211 49.8811 63.6789 49.8811 63.1332 50.1539C62.9469 50.247 62.7768 50.3696 62.6295 50.5169L62.5732 50.5732C62.3886 50.7578 62.235 50.9709 62.1183 51.2044L62 51.441C61.8356 51.7698 61.75 52.1324 61.75 52.5C61.75 52.8676 61.8356 53.2302 62 53.559L62.1183 53.7956C62.235 54.0291 62.3886 54.2422 62.5732 54.4268L62.6295 54.4831C62.7542 54.6077 62.8951 54.7147 63.0484 54.8011C62.7628 54.8426 62.481 54.9095 62.2064 55.001L62.0284 55.0603C61.5986 55.2036 61.1976 55.4218 60.8438 55.7048L60.7652 55.7813C60.4626 56.0839 60.1698 56.4251 59.913 56.7675C59.648 57.1915 59.4693 57.6636 59.3871 58.1568L59.3418 58.4285C59.2507 58.3251 59.1636 58.2179 59.0806 58.1072L59.0112 58.0148C58.6387 57.5181 58.3488 56.9647 58.1524 56.3757L57.9625 55.8058ZM59.7757 58.8669C60.127 59.1827 60.5202 59.451 60.9455 59.6637C61.4169 59.8994 61.9208 60.0632 62.4406 60.1499L63.3729 60.3052C64.1128 60.4286 64.8689 60.4164 65.6044 60.2693L65.9547 60.1992C66.5162 60.0869 67.0503 59.8657 67.5267 59.5481C67.9403 59.2724 68.3039 58.9284 68.6021 58.5307L68.619 58.5082L68.0244 57.1705C67.8697 56.8224 67.6523 56.5058 67.383 56.2365C67.0423 55.8959 66.627 55.6392 66.17 55.4868L66.032 55.4409C65.6528 55.3144 65.2556 55.25 64.8559 55.25H63.7533C63.2812 55.25 62.8123 55.3261 62.3645 55.4754L62.1865 55.5347C61.817 55.6579 61.4719 55.8447 61.1668 56.0867L61.1187 56.1348C60.8354 56.4182 60.5723 56.7211 60.3315 57.0414C60.1044 57.4073 59.9511 57.8142 59.8803 58.239L59.7757 58.8669ZM65.75 52.5C65.75 52.21 65.6825 51.924 65.5528 51.6646L65.4345 51.428C65.3418 51.2426 65.2198 51.0734 65.0732 50.9268L65.0169 50.8705C64.9076 50.7612 64.7814 50.6702 64.6432 50.6011C64.2383 50.3986 63.7617 50.3986 63.3568 50.6011C63.2186 50.6702 63.0924 50.7612 62.9831 50.8705L62.9268 50.9268C62.7802 51.0734 62.6582 51.2426 62.5655 51.428L62.4472 51.6646C62.3175 51.924 62.25 52.21 62.25 52.5C62.25 52.79 62.3175 53.076 62.4472 53.3354L62.5655 53.572C62.6582 53.7574 62.7802 53.9266 62.9268 54.0732L62.9831 54.1295C63.0924 54.2388 63.2186 54.3298 63.3568 54.3989C63.7617 54.6013 64.2383 54.6013 64.6432 54.3989C64.7814 54.3298 64.9076 54.2388 65.0169 54.1295L65.0732 54.0732C65.2198 53.9266 65.3418 53.7574 65.4345 53.572L65.5528 53.3354C65.6825 53.076 65.75 52.79 65.75 52.5Z" fill="white"/>
<path fill-rule="evenodd" clip-rule="evenodd" d="M75 70.1951V38.8049C75 36.7035 73.6867 35 72.0667 35H55.9333C54.3133 35 53 36.7035 53 38.8049V70.1951C53 72.2965 54.3133 74 55.9333 74H72.0667C73.6867 74 75 72.2965 75 70.1951ZM74.2667 38.8049H53.7333V70.1951H74.2667V38.8049ZM61 72.25C61 72.3881 61.1119 72.5 61.25 72.5H66.25C66.3881 72.5 66.5 72.3881 66.5 72.25C66.5 72.1119 66.3881 72 66.25 72H61.25C61.1119 72 61 72.1119 61 72.25ZM56.5 38C56.7761 38 57 37.7761 57 37.5C57 37.2239 56.7761 37 56.5 37C56.2239 37 56 37.2239 56 37.5C56 37.7761 56.2239 38 56.5 38Z" stroke="white"/>
<path fill-rule="evenodd" clip-rule="evenodd" d="M56.8125 52.8889C56.5971 53.9657 56.6665 55.0802 57.0138 56.122L57.2038 56.6919C57.4341 57.3829 57.7743 58.0321 58.2112 58.6148L58.2806 58.7072C58.8661 59.488 59.6254 60.1217 60.4983 60.5581C61.0588 60.8384 61.6581 61.0332 62.2762 61.1363L63.2085 61.2916C64.0679 61.4349 64.9462 61.4207 65.8005 61.2498L66.1508 61.1798C66.8404 61.0419 67.4963 60.7702 68.0814 60.3801C68.5893 60.0415 69.0359 59.619 69.4021 59.1307L69.6805 58.7596C70.1894 58.081 70.5856 57.3249 70.8538 56.5203C71.2881 55.2174 71.3748 53.8238 71.1055 52.4772L70.9843 51.8714L70.9217 51.6835C70.6031 50.7276 70.0662 49.859 69.3537 49.1465L68.9556 48.7484C68.1705 47.9633 67.1868 47.4063 66.1096 47.137C65.7559 47.0486 65.3951 46.9919 65.0313 46.9677L64.0002 46.8989L63.1634 46.9547C62.6585 46.9884 62.1599 47.0864 61.6798 47.2464C61.0739 47.4484 60.5046 47.7467 59.9937 48.1298L59.794 48.2796C59.0199 48.8602 58.3658 49.5855 57.8679 50.4152L57.5892 50.8797C57.2171 51.5 56.9543 52.1796 56.8125 52.8889ZM57.9625 55.8058C57.6702 54.929 57.6118 53.9912 57.7931 53.085C57.9124 52.4881 58.1335 51.9162 58.4467 51.3942L58.7254 50.9297C59.1567 50.2109 59.7234 49.5826 60.394 49.0796L60.5937 48.9298C61.0186 48.6112 61.4921 48.3631 61.996 48.1951C62.3953 48.062 62.81 47.9805 63.23 47.9525L64.0002 47.9011L64.9648 47.9654C65.2692 47.9857 65.5711 48.0331 65.8671 48.1071C66.7684 48.3325 67.5916 48.7985 68.2485 49.4555L68.6466 49.8536C69.2493 50.4563 69.7035 51.1911 69.973 51.9998L70.016 52.1286L70.1249 52.6733C70.3601 53.8493 70.2844 55.0663 69.9051 56.204C69.6854 56.8632 69.3673 57.4851 68.9619 58.0487L68.4813 56.9674C68.3017 56.5633 68.0492 56.1957 67.7365 55.883C67.341 55.4874 66.8588 55.1894 66.3281 55.0125L66.1901 54.9665C65.8154 54.8416 65.4253 54.77 65.0312 54.7536C65.1539 54.6765 65.2677 54.5858 65.3705 54.4831L65.4268 54.4268C65.6114 54.2422 65.765 54.0291 65.8817 53.7956L66 53.559C66.1644 53.2302 66.25 52.8676 66.25 52.5C66.25 52.1324 66.1644 51.7698 66 51.441L65.8817 51.2044C65.765 50.9709 65.6114 50.7578 65.4268 50.5732L65.3705 50.5169C65.2232 50.3696 65.0531 50.247 64.8668 50.1539C64.3211 49.8811 63.6789 49.8811 63.1332 50.1539C62.9469 50.247 62.7768 50.3696 62.6295 50.5169L62.5732 50.5732C62.3886 50.7578 62.235 50.9709 62.1183 51.2044L62 51.441C61.8356 51.7698 61.75 52.1324 61.75 52.5C61.75 52.8676 61.8356 53.2302 62 53.559L62.1183 53.7956C62.235 54.0291 62.3886 54.2422 62.5732 54.4268L62.6295 54.4831C62.7542 54.6077 62.8951 54.7147 63.0484 54.8011C62.7628 54.8426 62.481 54.9095 62.2064 55.001L62.0284 55.0603C61.5986 55.2036 61.1976 55.4218 60.8438 55.7048L60.7652 55.7813C60.4626 56.0839 60.1698 56.4251 59.913 56.7675C59.648 57.1915 59.4693 57.6636 59.3871 58.1568L59.3418 58.4285C59.2507 58.3251 59.1636 58.2179 59.0806 58.1072L59.0112 58.0148C58.6387 57.5181 58.3488 56.9647 58.1524 56.3757L57.9625 55.8058ZM59.7757 58.8669C60.127 59.1827 60.5202 59.451 60.9455 59.6637C61.4169 59.8994 61.9208 60.0632 62.4406 60.1499L63.3729 60.3052C64.1128 60.4286 64.8689 60.4164 65.6044 60.2693L65.9547 60.1992C66.5162 60.0869 67.0503 59.8657 67.5267 59.5481C67.9403 59.2724 68.3039 58.9284 68.6021 58.5307L68.619 58.5082L68.0244 57.1705C67.8697 56.8224 67.6523 56.5058 67.383 56.2365C67.0423 55.8959 66.627 55.6392 66.17 55.4868L66.032 55.4409C65.6528 55.3144 65.2556 55.25 64.8559 55.25H63.7533C63.2812 55.25 62.8123 55.3261 62.3645 55.4754L62.1865 55.5347C61.817 55.6579 61.4719 55.8447 61.1668 56.0867L61.1187 56.1348C60.8354 56.4182 60.5723 56.7211 60.3315 57.0414C60.1044 57.4073 59.9511 57.8142 59.8803 58.239L59.7757 58.8669ZM65.75 52.5C65.75 52.21 65.6825 51.924 65.5528 51.6646L65.4345 51.428C65.3418 51.2426 65.2198 51.0734 65.0732 50.9268L65.0169 50.8705C64.9076 50.7612 64.7814 50.6702 64.6432 50.6011C64.2383 50.3986 63.7617 50.3986 63.3568 50.6011C63.2186 50.6702 63.0924 50.7612 62.9831 50.8705L62.9268 50.9268C62.7802 51.0734 62.6582 51.2426 62.5655 51.428L62.4472 51.6646C62.3175 51.924 62.25 52.21 62.25 52.5C62.25 52.79 62.3175 53.076 62.4472 53.3354L62.5655 53.572C62.6582 53.7574 62.7802 53.9266 62.9268 54.0732L62.9831 54.1295C63.0924 54.2388 63.2186 54.3298 63.3568 54.3989C63.7617 54.6013 64.2383 54.6013 64.6432 54.3989C64.7814 54.3298 64.9076 54.2388 65.0169 54.1295L65.0732 54.0732C65.2198 53.9266 65.3418 53.7574 65.4345 53.572L65.5528 53.3354C65.6825 53.076 65.75 52.79 65.75 52.5Z" stroke="white"/>
</g>
<defs>
<filter id="filter0_d_3_86" x="-11" y="0" width="150" height="150" filterUnits="userSpaceOnUse" color-interpolation-filters="sRGB">
<feFlood flood-opacity="0" result="BackgroundImageFix"/>
<feColorMatrix in="SourceAlpha" type="matrix" values="0 0 0 0 0 0 0 0 0 0 0 0 0 0 0 0 0 0 127 0" result="hardAlpha"/>
<feOffset dy="20"/>
<feGaussianBlur stdDeviation="20"/>
<feComposite in2="hardAlpha" operator="out"/>
<feColorMatrix type="matrix" values="0 0 0 0 0.37 0 0 0 0 0.37 0 0 0 0 0.37 0 0 0 0.3 0"/>
<feBlend mode="normal" in2="BackgroundImageFix" result="effect1_dropShadow_3_86"/>
<feBlend mode="normal" in="SourceGraphic" in2="effect1_dropShadow_3_86" result="shape"/>
</filter>
<linearGradient id="paint0_linear_3_86" x1="64" y1="20" x2="64" y2="90" gradientUnits="userSpaceOnUse">
<stop stop-color="#ED1C24"/>
<stop offset="1" stop-color="#871015"/>
</linearGradient>
</defs>
</svg>
