<svg width="139" height="137" viewBox="0 0 139 137" fill="none" xmlns="http://www.w3.org/2000/svg">
<g filter="url(#filter0_d_3_75)">
<g clip-path="url(#clip0_3_75)">
<rect x="29" y="20" width="70" height="70" rx="10" fill="url(#paint0_linear_3_75)"/>
<g clip-path="url(#clip1_3_75)">
<path d="M73.1667 53.3334C67.1933 53.3334 62.3333 58.1934 62.3333 64.1668C62.3333 70.1401 67.1933 75.0001 73.1667 75.0001C79.14 75.0001 84 70.1401 84 64.1668C84 58.1934 79.14 53.3334 73.1667 53.3334ZM77.8617 62.0684L72.445 68.3184C72.3325 68.448 72.1946 68.5531 72.0397 68.6271C71.8849 68.7011 71.7165 68.7424 71.545 68.7484H71.5C71.3359 68.7486 71.1733 68.7162 71.0217 68.6533C70.8701 68.5904 70.7325 68.4981 70.6167 68.3818L67.7 65.4651C67.4655 65.2306 67.3338 64.9126 67.3338 64.5809C67.3338 64.2493 67.4655 63.9313 67.7 63.6968C67.9345 63.4623 68.2525 63.3305 68.5842 63.3305C68.9158 63.3305 69.2338 63.4623 69.4683 63.6968L71.4367 65.6634L75.9733 60.4284C76.1951 60.1939 76.4989 60.0542 76.8213 60.0383C77.1437 60.0225 77.4597 60.1318 77.7034 60.3435C77.9471 60.5551 78.0996 60.8527 78.1291 61.1742C78.1586 61.4956 78.0628 61.816 77.8617 62.0684ZM66.4 37.6501L51.2667 45.2834L45.25 42.3668L60.1167 35.1334C60.45 34.9668 60.85 34.9668 61.2 35.1334L66.4 37.6501ZM76.0833 42.3668L60.6833 49.8834L54.9167 47.0834L54.0833 46.6668L69.2333 39.0334L70.0667 39.4501L76.0833 42.3668ZM59.4333 60.6668C58.8582 62.9534 58.8582 65.3468 59.4333 67.6334V67.8668L44.6833 60.2834C44.4785 60.1772 44.3066 60.017 44.1862 59.8202C44.0658 59.6234 44.0014 59.3975 44 59.1668V44.5334L50.25 47.5668V52.9001C50.25 53.5834 50.8167 54.1501 51.5 54.1501C52.1833 54.1501 52.75 53.5834 52.75 52.9001V48.8001L53.5833 49.2001L59.45 52.0501L59.4333 60.6668ZM77.35 50.6334C76.0333 50.2168 74.6167 50.0001 73.1667 50.0001C68.6 50.0001 64.5333 52.1668 61.95 55.5334V52.0334L77.3333 44.5501C77.35 45.9501 77.35 48.6834 77.35 50.6334Z" fill="white"/>
</g>
<g filter="url(#filter1_d_3_75)">
<rect x="29" y="20" width="70" height="70" rx="10" fill="url(#paint1_linear_3_75)"/>
<path d="M44.0002 62.0311C44.0002 63.9044 44.498 65.7286 45.4444 67.3433L44.0745 70.994C43.9956 71.2048 43.9789 71.4338 44.0266 71.6538C44.0743 71.8738 44.1843 72.0754 44.3434 72.2345C44.671 72.5637 45.1602 72.6627 45.584 72.5034L49.3127 71.1336C50.9275 72.08 52.7517 72.5778 54.625 72.5778C60.4408 72.5778 65.1718 67.8469 65.1718 62.0311C65.1718 56.2153 60.4408 51.4843 54.625 51.4843C48.8092 51.4843 44.0002 56.2153 44.0002 62.0311ZM59.3125 60.8592C59.9597 60.8592 60.4843 61.3837 60.4843 62.0311C60.4843 62.6782 59.9597 63.2029 59.3125 63.2029C58.6653 63.2029 58.1406 62.6782 58.1406 62.0311C58.1406 61.3838 58.6653 60.8592 59.3125 60.8592ZM54.625 60.8592C55.2722 60.8592 55.7969 61.3837 55.7969 62.0311C55.7969 62.6782 55.2722 63.2029 54.625 63.2029C53.9778 63.2029 53.4532 62.6782 53.4532 62.0311C53.4532 61.3838 53.9778 60.8592 54.625 60.8592ZM49.9376 60.8592C50.5848 60.8592 51.1094 61.3837 51.1094 62.0311C51.1094 62.6782 50.5848 63.2029 49.9376 63.2029C49.2904 63.2029 48.7657 62.6782 48.7657 62.0311C48.7657 61.3838 49.2904 60.8592 49.9376 60.8592Z" fill="#DBDBDB"/>
<path d="M71.0309 37.422C64.1356 37.422 58.5213 42.8401 58.1738 49.649C63.5594 51.1956 67.5153 56.1552 67.5153 62.0311C67.5153 62.2552 67.4929 62.4738 67.4817 62.6951C68.6065 63.0177 69.7929 63.2029 71.0309 63.2029C73.4796 63.2029 75.7605 62.5077 77.7102 61.3221C77.7259 61.3127 77.7431 61.3071 77.7588 61.2975L82.3927 63.1194C82.6056 63.2043 82.8388 63.225 83.0633 63.1788C83.2879 63.1327 83.494 63.0217 83.6561 62.8596C83.8183 62.6976 83.9294 62.4915 83.9756 62.2669C84.0218 62.0423 84.001 61.8091 83.9159 61.5962L82.094 57.0404C82.1059 57.0212 82.1135 57.0001 82.1252 56.9808C83.3906 54.8949 83.9994 52.5211 83.9994 50.3125C83.9995 43.1932 78.1502 37.422 71.0309 37.422ZM66.3434 51.4843C65.6962 51.4843 65.1716 50.9597 65.1716 50.3125C65.1716 49.6651 65.6962 49.1406 66.3434 49.1406C66.9906 49.1406 67.5153 49.6651 67.5153 50.3125C67.5153 50.9597 66.9905 51.4843 66.3434 51.4843ZM71.0309 51.4843C70.3837 51.4843 69.859 50.9597 69.859 50.3125C69.859 49.6651 70.3837 49.1406 71.0309 49.1406C71.678 49.1406 72.2027 49.6651 72.2027 50.3125C72.2027 50.9597 71.678 51.4843 71.0309 51.4843ZM75.7183 51.4843C75.0711 51.4843 74.5464 50.9597 74.5464 50.3125C74.5464 49.6651 75.0711 49.1406 75.7183 49.1406C76.3655 49.1406 76.8902 49.6651 76.8902 50.3125C76.8902 50.9597 76.3654 51.4843 75.7183 51.4843Z" fill="#DBDBDB"/>
</g>
</g>
</g>
<defs>
<filter id="filter0_d_3_75" x="-11" y="0" width="150" height="150" filterUnits="userSpaceOnUse" color-interpolation-filters="sRGB">
<feFlood flood-opacity="0" result="BackgroundImageFix"/>
<feColorMatrix in="SourceAlpha" type="matrix" values="0 0 0 0 0 0 0 0 0 0 0 0 0 0 0 0 0 0 127 0" result="hardAlpha"/>
<feOffset dy="20"/>
<feGaussianBlur stdDeviation="20"/>
<feComposite in2="hardAlpha" operator="out"/>
<feColorMatrix type="matrix" values="0 0 0 0 0.37 0 0 0 0 0.37 0 0 0 0 0.37 0 0 0 0.3 0"/>
<feBlend mode="normal" in2="BackgroundImageFix" result="effect1_dropShadow_3_75"/>
<feBlend mode="normal" in="SourceGraphic" in2="effect1_dropShadow_3_75" result="shape"/>
</filter>
<filter id="filter1_d_3_75" x="-11" y="0" width="150" height="150" filterUnits="userSpaceOnUse" color-interpolation-filters="sRGB">
<feFlood flood-opacity="0" result="BackgroundImageFix"/>
<feColorMatrix in="SourceAlpha" type="matrix" values="0 0 0 0 0 0 0 0 0 0 0 0 0 0 0 0 0 0 127 0" result="hardAlpha"/>
<feOffset dy="20"/>
<feGaussianBlur stdDeviation="20"/>
<feComposite in2="hardAlpha" operator="out"/>
<feColorMatrix type="matrix" values="0 0 0 0 0.37 0 0 0 0 0.37 0 0 0 0 0.37 0 0 0 0.3 0"/>
<feBlend mode="normal" in2="BackgroundImageFix" result="effect1_dropShadow_3_75"/>
<feBlend mode="normal" in="SourceGraphic" in2="effect1_dropShadow_3_75" result="shape"/>
</filter>
<linearGradient id="paint0_linear_3_75" x1="64" y1="20" x2="64" y2="90" gradientUnits="userSpaceOnUse">
<stop stop-color="#ED1C24"/>
<stop offset="1" stop-color="#871015"/>
</linearGradient>
<linearGradient id="paint1_linear_3_75" x1="64" y1="20" x2="64" y2="90" gradientUnits="userSpaceOnUse">
<stop stop-color="#ED1C24"/>
<stop offset="1" stop-color="#871015"/>
</linearGradient>
<clipPath id="clip0_3_75">
<rect x="29" y="20" width="70" height="70" rx="10" fill="white"/>
</clipPath>
<clipPath id="clip1_3_75">
<rect width="40" height="40" fill="white" transform="translate(44 35)"/>
</clipPath>
</defs>
</svg>
