<svg width="61" height="61" viewBox="0 0 61 61" fill="none" xmlns="http://www.w3.org/2000/svg">
<rect x="0.0297852" y="0.5" width="60" height="60" rx="25" fill="url(#paint0_linear_3_40)"/>
<path d="M26.7571 34.0448L26.2608 41.5832C26.9709 41.5832 27.2784 41.2538 27.6471 40.8582L30.976 37.4225L37.8736 42.8778C39.1387 43.6392 40.0299 43.2383 40.3712 41.621L44.8988 18.7089L44.9 18.7075C45.3013 16.6879 44.2238 15.8982 42.9912 16.3936L16.3781 27.3974C14.5618 28.1588 14.5893 29.2523 16.0693 29.7478L22.8733 32.0333L38.6774 21.3535C39.4212 20.8216 40.0974 21.1159 39.5412 21.6478L26.7571 34.0448Z" fill="white"/>
<defs>
<linearGradient id="paint0_linear_3_40" x1="30.0298" y1="60.5" x2="30.0298" y2="0.5" gradientUnits="userSpaceOnUse">
<stop/>
<stop offset="1" stop-color="#FF000A"/>
</linearGradient>
</defs>
</svg>
