<svg width="61" height="61" viewBox="0 0 61 61" fill="none" xmlns="http://www.w3.org/2000/svg">
<rect x="0.0297852" y="0.5" width="60" height="60" rx="25" fill="url(#paint0_linear_3_46)"/>
<path d="M15.0129 19.2567C15.0048 18.9155 15.1651 18.5922 15.4416 18.392C15.6185 18.2639 15.8314 18.195 16.0499 18.195H19.8912C20.149 18.195 20.401 18.2715 20.6153 18.4148C20.811 18.5457 20.9676 18.7272 21.0684 18.94L21.1542 19.1213C21.1982 19.2141 21.235 19.3102 21.2645 19.4086L22.6683 24.1053L23.8715 27.3349L24.8141 29.1262C24.8655 29.2238 24.9238 29.3174 24.9887 29.4065L25.384 29.949C25.4607 30.0542 25.5736 30.1273 25.7009 30.1542C25.9427 30.2053 26.1875 30.0814 26.2896 29.8563L26.4322 29.5417C26.4653 29.4686 26.489 29.3917 26.503 29.3128L26.6248 28.6217L26.7471 27.3349L26.8287 24.1053L26.6922 21.4036C26.6745 21.0532 26.6092 20.7069 26.4982 20.3741L26.3698 19.9896C26.3158 19.8279 26.2347 19.6765 26.1299 19.5419L26.0396 19.4259C25.955 19.3173 25.8462 19.23 25.7219 19.1709C25.2687 18.9557 25.0859 18.4065 25.3195 17.9625L25.3315 17.9397C25.3776 17.8521 25.4377 17.7726 25.5095 17.7044L25.5777 17.6396C25.7948 17.4334 26.0693 17.2979 26.365 17.2511L27.5384 17.0652C27.8126 17.0218 28.0899 17 28.3675 17H29.9898L30.5894 17.057C30.8667 17.0833 31.1359 17.1649 31.3811 17.2969L31.4146 17.315C31.8124 17.5292 32.1248 17.873 32.3001 18.2893C32.3907 18.5046 32.4425 18.7343 32.453 18.9677L32.5391 20.8756L32.4487 27.6682C32.441 28.2453 32.5266 28.8198 32.7022 29.3696L32.945 29.8897C33.0084 30.0256 33.1448 30.1124 33.2947 30.1124C33.4013 30.1124 33.5031 30.0684 33.576 29.9908L33.9186 29.6261C34.0181 29.5203 34.1022 29.4008 34.1683 29.2714L35.1903 27.2703L36.1081 25.0742L37.3113 21.36L38.0759 18.8502C38.1225 18.6969 38.2148 18.5616 38.3404 18.4621C38.4797 18.3519 38.652 18.2919 38.8296 18.2919H44.2043C44.3673 18.2919 44.5254 18.3476 44.6524 18.4499C44.7846 18.5564 44.8745 18.7064 44.9062 18.8732L44.938 19.0413C44.9655 19.1863 44.9655 19.3352 44.938 19.4803L44.6737 20.8756C44.4022 21.8431 44.0566 22.7882 43.6401 23.7027L42.0224 27.2542L40.7988 29.7168L40.3501 30.9481L40.2413 31.3131C40.0727 31.8786 40.0708 32.4808 40.2359 33.0473C40.3117 33.3073 40.4216 33.5561 40.5627 33.7872L43.3277 38.3158L44.0571 39.6487C44.2774 40.0512 44.4626 40.472 44.6107 40.9063L44.8678 41.6601C44.9149 41.7984 44.9444 41.9422 44.9555 42.0879C44.9843 42.4691 44.8862 42.8491 44.6763 43.1687L44.4697 43.4833C44.3393 43.6486 44.148 43.7547 43.9386 43.7779L42.2264 43.9677L40.1869 44L39.7206 43.9852C39.3556 43.9737 38.997 43.8868 38.6671 43.7301C38.3247 43.5674 38.0212 43.3332 37.777 43.0432L37.3867 42.5796C37.2143 42.3749 37.0573 42.1577 36.9169 41.9299L35.8837 40.2536L35.1638 38.9279C35.0596 38.736 34.9298 38.5592 34.7779 38.4024L34.2355 37.8421C34.1289 37.732 33.9822 37.6699 33.8289 37.6699C33.6258 37.6699 33.4383 37.7787 33.3376 37.955L33.0587 38.4432C32.9846 38.5729 32.9298 38.7127 32.8961 38.8582L32.7226 39.6077L32.4371 42.6117L32.3931 42.8466C32.3682 42.9796 32.3217 43.1077 32.2554 43.2257L32.2256 43.2788C32.1501 43.4132 32.0441 43.5281 31.9161 43.614C31.8223 43.6771 31.7183 43.7235 31.6087 43.7513L31.5194 43.7739C31.1812 43.8596 30.8325 43.8964 30.4839 43.8831L28.9949 43.8265C28.6401 43.8131 28.2888 43.7519 27.9504 43.6447L27.123 43.2516C26.3186 42.8695 25.5683 42.3826 24.8914 41.8038L23.8717 40.738L23.3619 40.2132L22.852 39.5431L21.8323 37.9282L20.3027 34.86L19.1808 32.1794L17.9573 28.9498L16.8354 25.7201L15.714 22.1675L15.0626 19.7402C15.0347 19.6363 15.0193 19.5294 15.0168 19.4218L15.0129 19.2567Z" fill="#D9D9D9"/>
<defs>
<linearGradient id="paint0_linear_3_46" x1="30.0298" y1="0.5" x2="30.0298" y2="60.5" gradientUnits="userSpaceOnUse">
<stop stop-color="#FF000A"/>
<stop offset="1"/>
</linearGradient>
</defs>
</svg>
