<svg width="61" height="61" viewBox="0 0 61 61" fill="none" xmlns="http://www.w3.org/2000/svg">
<rect x="0.0297852" y="0.5" width="60" height="60" rx="25" fill="url(#paint0_linear_3_43)"/>
<path d="M30.0037 15H29.9963C21.7256 15 15 21.7275 15 30C15 33.2812 16.0575 36.3225 17.8556 38.7919L15.9863 44.3644L21.7519 42.5213C24.1237 44.0925 26.9531 45 30.0037 45C38.2744 45 45 38.2706 45 30C45 21.7294 38.2744 15 30.0037 15ZM38.7319 36.1819C38.37 37.2038 36.9338 38.0512 35.7881 38.2987C35.0044 38.4656 33.9806 38.5988 30.5344 37.17C26.1262 35.3438 23.2875 30.8644 23.0662 30.5737C22.8544 30.2831 21.285 28.2019 21.285 26.0494C21.285 23.8969 22.3781 22.8488 22.8188 22.3988C23.1806 22.0294 23.7787 21.8606 24.3525 21.8606C24.5381 21.8606 24.705 21.87 24.855 21.8775C25.2956 21.8962 25.5169 21.9225 25.8075 22.6181C26.1694 23.49 27.0506 25.6425 27.1556 25.8638C27.2625 26.085 27.3694 26.385 27.2194 26.6756C27.0788 26.9756 26.955 27.1087 26.7337 27.3637C26.5125 27.6187 26.3025 27.8138 26.0812 28.0875C25.8787 28.3256 25.65 28.5806 25.905 29.0213C26.16 29.4525 27.0413 30.8906 28.3387 32.0456C30.0131 33.5362 31.3706 34.0125 31.8562 34.215C32.2181 34.365 32.6494 34.3294 32.9137 34.0481C33.2494 33.6863 33.6637 33.0863 34.0856 32.4956C34.3856 32.0719 34.7644 32.0194 35.1619 32.1694C35.5669 32.31 37.71 33.3694 38.1506 33.5887C38.5912 33.81 38.8819 33.915 38.9887 34.1006C39.0938 34.2863 39.0938 35.1581 38.7319 36.1819Z" fill="white"/>
<defs>
<linearGradient id="paint0_linear_3_43" x1="30.0298" y1="0.5" x2="30.0298" y2="60.5" gradientUnits="userSpaceOnUse">
<stop stop-color="#FF000A"/>
<stop offset="1"/>
</linearGradient>
</defs>
</svg>
